<svg width="157" height="73" viewBox="0 0 157 73" fill="none" xmlns="http://www.w3.org/2000/svg">
<path fill-rule="evenodd" clip-rule="evenodd" d="M59.0377 18.0895H71.7145L75.5418 5.83641L79.4595 18.0895H92.0316L81.735 25.6013L85.6623 37.7497L75.4466 30.2379L65.4261 37.7592L69.2534 25.6965L59.0329 18.0895H59.0377ZM88.1852 45.5424H71.5812C74.2136 45.3758 76.9604 44.5332 79.4595 42.6767C79.5309 42.6148 85.667 37.764 85.667 37.764L88.19 45.5471L88.1852 45.5424ZM69.7675 45.5424C62.8698 45.1139 56.8384 39.7252 55.9578 32.4895V45.5424H69.7675ZM75.5132 0.000238812C69.6056 0.0192802 63.6743 3.47052 61.5083 10.2968L56.7718 25.23C56.3862 26.4582 56.0863 27.6292 55.953 28.7955V0.000238812H75.5085H75.5132ZM100.691 45.5424L89.5753 10.2968C87.3903 3.3658 81.4303 -0.0330835 75.5227 0.000238812H100.691V45.5424Z" fill="#003E76"/>
<path fill-rule="evenodd" clip-rule="evenodd" d="M15.4759 68.4206L16.9135 72.2669H22.9401L14.6618 50.0076H8.45436L0 72.2669H6.11703L7.6451 68.4206H15.4711L24.0207 72.2669M24.0254 72.2669H29.695V58.619H29.7854L40.2248 72.2669H45.8944V50.0076H40.2248V63.6555H40.1344L29.695 50.0076H24.0254V72.2669ZM94.745 50.0076H88.985V72.2669H101.581V67.4114H94.745V50.0076ZM112.739 49.2745C106.441 49.2745 100.681 53.9444 100.681 60.7231C100.681 67.9588 105.718 73 112.739 73C119.761 73 124.887 67.9636 124.887 60.7231C124.887 53.9444 119.037 49.2745 112.739 49.2745ZM126.325 72.2669H132.085V58.619L142.524 72.2669H148.194V50.0076H142.524V63.6555H142.434L132.085 50.0076H126.325V72.2669ZM156.644 50.0076H150.974V72.2669H156.644V50.0076ZM58.6616 59.8091V64.3886H63.341C63.0697 66.9544 61.1798 68.2349 58.7521 68.2349C54.9724 68.2349 52.9921 64.7551 52.9921 61.2705C52.9921 57.786 54.8819 54.2157 58.6616 54.2157C60.9989 54.2157 62.4413 55.3154 63.2506 57.4194H69.639C67.6587 51.1881 63.4315 49.265 58.933 49.265C51.9162 49.265 47.0559 54.0301 47.0559 61.2658C47.0559 68.5015 51.8258 72.9905 58.7521 72.9905C62.3509 72.9905 65.5879 71.71 67.7491 68.6871C69.7294 65.8452 69.9103 63.0985 70.0007 59.7996H58.6616V59.8091ZM87.0047 54.8631V50.0076H71.4384V72.2669H87.0047V67.4114H77.1079V63.565H87.0047V58.619H77.1079V54.8631H87.0047ZM13.8573 64.022H9.17793L11.5153 56.8767H11.6057L13.8573 64.022ZM112.739 54.8631C116.157 54.8631 118.947 57.705 118.947 60.7279C118.947 64.5742 116.157 67.4161 112.739 67.4161C109.321 67.4161 106.622 64.5742 106.622 60.7279C106.622 57.705 109.412 54.8631 112.739 54.8631Z" fill="#003E76"/>
</svg>
